<?xml version="1.0" encoding="UTF-8" standalone="no"?>
<!-- Created with Inkscape (http://www.inkscape.org/) -->

<svg
   xmlns:dc="http://purl.org/dc/elements/1.1/"
   xmlns:cc="http://creativecommons.org/ns#"
   xmlns:rdf="http://www.w3.org/1999/02/22-rdf-syntax-ns#"
   xmlns:svg="http://www.w3.org/2000/svg"
   xmlns="http://www.w3.org/2000/svg"
   xmlns:sodipodi="http://sodipodi.sourceforge.net/DTD/sodipodi-0.dtd"
   xmlns:inkscape="http://www.inkscape.org/namespaces/inkscape"
   width="472.31171"
   height="224.02107"
   id="svg2"
   version="1.1"
   inkscape:version="0.48.5 r10040"
   sodipodi:docname="SiPOS_logo5.svg">
  <defs
     id="defs4" />
  <sodipodi:namedview
     id="base"
     pagecolor="#ffffff"
     bordercolor="#666666"
     borderopacity="1.0"
     inkscape:pageopacity="0.0"
     inkscape:pageshadow="2"
     inkscape:zoom="1.4"
     inkscape:cx="380.54743"
     inkscape:cy="201.93171"
     inkscape:document-units="px"
     inkscape:current-layer="Camada_x0020_1"
     showgrid="false"
     fit-margin-top="0"
     fit-margin-left="0"
     fit-margin-right="0"
     fit-margin-bottom="0"
     inkscape:window-width="1600"
     inkscape:window-height="861"
     inkscape:window-x="0"
     inkscape:window-y="0"
     inkscape:window-maximized="1" />
  <metadata
     id="metadata7">
    <rdf:RDF>
      <cc:Work
         rdf:about="">
        <dc:format>image/svg+xml</dc:format>
        <dc:type
           rdf:resource="http://purl.org/dc/dcmitype/StillImage" />
        <dc:title></dc:title>
      </cc:Work>
    </rdf:RDF>
  </metadata>
  <g
     inkscape:label="Layer 1"
     inkscape:groupmode="layer"
     id="layer1"
     transform="translate(-138.84418,-428.35167)">
    <g
       style="fill-rule:evenodd"
       id="g3050"
       transform="matrix(1.0613746,0,0,0.81576888,-989.39702,-0.74276438)">
      <g
         id="Camada_x0020_1">
        <metadata
           id="CorelCorpID_0Corel-Layer" />
        <path
           id="path3031"
           d="m 1063,668 c 13,14 30,21 46,21 29,0 47,-21 47,-45 0,-20 -10,-32 -25,-39 l -16,-8 c -11,-5 -19,-8 -19,-17 0,-8 6,-13 16,-13 10,0 18,4 26,12 l 14,-21 c -11,-12 -26,-19 -40,-19 -26,0 -44,19 -44,43 0,21 12,34 25,40 l 16,8 c 11,5 18,8 18,17 0,9 -6,14 -17,14 -10,0 -22,-6 -30,-15 l -16,23 z"
           inkscape:connector-curvature="0"
           style="fill:#ffffff;fill-rule:nonzero" />
        <path
           d="m 1188,560 c 10,0 16,-7 16,-17 0,-10 -7,-17 -16,-17 -9,0 -16,7 -16,17 0,10 7,17 16,17 z m -14,127 28,0 0,-111 -28,0 0,111 z"
           id="1"
           inkscape:connector-curvature="0"
           style="fill:#ffffff;fill-rule:nonzero" />
        <path
           d="m 1229,687 28,0 0,-49 17,0 c 26,0 48,-15 48,-49 0,-35 -21,-47 -48,-47 l -45,0 0,145 z m 28,-75 0,-44 15,0 c 15,0 23,6 23,21 0,15 -7,23 -23,23 l -15,0 z"
           id="2"
           inkscape:connector-curvature="0"
           style="fill:#ffffff;fill-rule:nonzero" />
        <path
           d="m 1415,668 c 13,14 30,21 46,21 29,0 47,-21 47,-45 0,-20 -10,-32 -25,-39 l -16,-8 c -11,-5 -19,-8 -19,-17 0,-8 6,-13 16,-13 10,0 18,4 26,12 l 14,-21 c -11,-12 -26,-19 -40,-19 -26,0 -44,19 -44,43 0,21 12,34 25,40 l 16,8 c 11,5 18,8 18,17 0,9 -6,14 -17,14 -10,0 -22,-6 -30,-15 l -16,23 z"
           id="3"
           inkscape:connector-curvature="0"
           style="fill:#ffffff;fill-rule:nonzero" />
        <g
           id="g3127"
           transform="translate(9.421744,19.613399)">
          <ellipse
             d="m 1472,746 c 0,19.32997 -52.3827,35 -117,35 -64.6173,0 -117,-15.67003 -117,-35 0,-19.32997 52.3827,-35 117,-35 64.6173,0 117,15.67003 117,35 z"
             style="fill:#a7c4d2"
             sodipodi:ry="35"
             sodipodi:rx="117"
             sodipodi:cy="746"
             sodipodi:cx="1355"
             cx="1355"
             cy="746"
             rx="117"
             ry="35"
             id="ellipse3036"
             transform="translate(1.8843488,0)" />
          <ellipse
             d="m 1445,746 c 0,14.3594 -40.2944,26 -90,26 -49.7056,0 -90,-11.6406 -90,-26 0,-14.3594 40.2944,-26 90,-26 49.7056,0 90,11.6406 90,26 z"
             style="fill:#91d8f7"
             sodipodi:ry="26"
             sodipodi:rx="90"
             sodipodi:cy="746"
             sodipodi:cx="1355"
             cx="1355"
             cy="746"
             rx="90"
             ry="26"
             id="ellipse3038"
             transform="translate(1.8843488,0)" />
          <ellipse
             d="m 1422,746 c 0,11.04569 -29.9969,20 -67,20 -37.0031,0 -67,-8.95431 -67,-20 0,-11.04569 29.9969,-20 67,-20 37.0031,0 67,8.95431 67,20 z"
             style="fill:#e6e7e8"
             sodipodi:ry="20"
             sodipodi:rx="67"
             sodipodi:cy="746"
             sodipodi:cx="1355"
             cx="1355"
             cy="746"
             rx="67"
             ry="20"
             id="ellipse3040"
             transform="translate(1.8843488,0)" />
        </g>
        <path
           id="path3042"
           d="m 1366.4215,588 c 25,0 46,28 46,62 0,33.29715 -40.8371,90.7606 -46,115.83015 -5.6662,-27.51343 -46,-83.44337 -46,-115.83015 0,-34 21,-62 46,-62 z m 0,35.19857 c 12,0 19.3081,11 19.3081,24 0,13 -7.3081,24 -19.3081,24 -12,0 -18.9716,-11 -18.9716,-24 0,-13 6.9716,-24 18.9716,-24 z"
           inkscape:connector-curvature="0"
           style="fill:#ffffff;fill-opacity:1"
           sodipodi:nodetypes="scccssssss" />
      </g>
    </g>
  </g>
</svg>
